<?xml version="1.0" ?><svg id="Icons" style="enable-background:new 0 0 32 32;" version="1.1" viewBox="0 0 32 32" xml:space="preserve" xmlns="http://www.w3.org/2000/svg" xmlns:xlink="http://www.w3.org/1999/xlink"><style type="text/css">
	.st0{fill:none;stroke:#000000;stroke-width:2;stroke-miterlimit:10;}
	.st1{fill:none;stroke:#000000;stroke-width:2;stroke-linejoin:round;stroke-miterlimit:10;}
	.st2{fill:none;stroke:#000000;stroke-width:2;stroke-linecap:round;stroke-linejoin:round;stroke-miterlimit:10;}
	.st3{fill:none;stroke:#000000;stroke-width:2;stroke-linecap:round;stroke-miterlimit:10;}
	.st4{fill:none;stroke:#000000;stroke-width:2;stroke-linejoin:round;stroke-miterlimit:10;stroke-dasharray:3;}
</style><path class="st2" d="M16,24c3.6,0,7.1,0.7,10.2,2.1c1.8-2.2,2.8-5,2.8-8.1c0-7.2-5.8-13-13-13S3,10.8,3,18c0,3.1,1.1,5.9,2.8,8.1  C8.9,24.7,12.4,24,16,24z"/><line class="st2" x1="16" x2="16" y1="8" y2="10"/><line class="st2" x1="8.9" x2="10.3" y1="10.9" y2="12.3"/><line class="st2" x1="6" x2="8" y1="18" y2="18"/><line class="st2" x1="26" x2="24" y1="18" y2="18"/><line class="st2" x1="23.1" x2="21.7" y1="10.9" y2="12.3"/><line class="st2" x1="16" x2="20" y1="24" y2="16"/></svg>