<?xml version="1.0" ?><!DOCTYPE svg  PUBLIC '-//W3C//DTD SVG 1.1//EN'  'http://www.w3.org/Graphics/SVG/1.1/DTD/svg11.dtd'><svg enable-background="new 0 0 64 64" height="64px" id="Layer_1" version="1.1" viewBox="0 0 64 64" width="64px" xml:space="preserve" xmlns="http://www.w3.org/2000/svg" xmlns:xlink="http://www.w3.org/1999/xlink"><g><path d="M44,10c0-2.598-2.061-4-4-4H25c-3.668,0-5,2.393-5,4v5h-4v43h32V15h-4V10z M24,15v-4.817   C24.079,10.132,24.346,10,25,10h14.943c0.017,0,0.037,0.003,0.057,0.007V15H24z" fill="#010101"/><path d="M2,19.111V24v25.111V54c0,2.209,1.791,4,4,4h6V15H6C3.791,15,2,16.902,2,19.111z" fill="#010101"/><path d="M58,15h-6v43h6c2.209,0,4-1.791,4-4v-4.889V24v-4.889C62,16.902,60.209,15,58,15z" fill="#010101"/></g></svg>