<?xml version="1.0" ?><!DOCTYPE svg  PUBLIC '-//W3C//DTD SVG 1.1//EN'  'http://www.w3.org/Graphics/SVG/1.1/DTD/svg11.dtd'><svg enable-background="new 0 0 256 256" height="256px" id="Layer_1" version="1.1" viewBox="0 0 256 256" width="256px" xml:space="preserve" xmlns="http://www.w3.org/2000/svg" xmlns:xlink="http://www.w3.org/1999/xlink"><g><path d="M109.994,129.416l-29.503,32.196c-1.717,1.874-4.349,2.405-6.582,1.534l-16.928-6.6v38.253l53.013,17.064    V129.416L109.994,129.416z M44.978,151.853l-33.819-13.218c-4.019-1.571-4.982-6.634-2.124-9.752l33.262-36.269L2.173,59.608    c-3.839-3.157-2.36-9.473,2.624-10.48l94.023-19.01c1.707-0.346,3.552,0.064,4.993,1.265l38.675,32.24l31.334-19.699    c1.348-0.846,3.028-1.162,4.689-0.729l68.741,17.939c5.116,1.335,6.554,7.992,2.01,10.905L217.307,92.53l36.425,28.81    c3.948,3.12,2.463,9.347-2.299,10.499l-38.415,9.297l-0.018,56.933c0,2.701-1.836,5.153-4.575,5.816l-90.532,21.894    c-1.393,0.336-2.831,0.29-4.194-0.149l-64.09-20.631c-2.592-0.835-4.63-3.002-4.63-5.846V151.853L44.978,151.853z M54.174,86.895    l76.403-17.637L98.366,42.407L19.478,58.359L54.174,86.895L54.174,86.895z M154.221,70.385l50.149,16.207l26.915-17.259    l-53.279-13.902L154.221,70.385L154.221,70.385z M203.882,97.152l-76.265,18.444l32.805,25.948l76.266-18.444L203.882,97.152    L203.882,97.152z M106.6,115.434l-52.632-17.82l-30.302,33.043l50.792,19.853L106.6,115.434L106.6,115.434z" fill="#373737"/></g></svg>